<svg width="24" height="24" viewBox="0 0 24 24" fill="none" xmlns="http://www.w3.org/2000/svg">
<g clip-path="url(#clip0_4021_314)">
<path d="M12.0031 24C10.416 24.0178 8.8412 23.7207 7.36978 23.1257C5.89837 22.5307 4.55959 21.6498 3.43098 20.5338C2.30237 19.4179 1.40634 18.0892 0.794777 16.6246C0.183213 15.16 -0.131737 13.5886 -0.131836 12.0015C-0.131935 10.4143 0.182818 8.84293 0.794199 7.37825C1.40558 5.91358 2.30144 4.58474 3.42992 3.46868C4.55839 2.35261 5.89705 1.4715 7.36839 0.876343C8.83973 0.281191 10.4145 -0.0161711 12.0016 0.0014741C15.1607 0.0365982 18.1786 1.31617 20.4002 3.56248C22.6218 5.8088 23.868 8.84062 23.8682 12C23.8684 15.1593 22.6226 18.1913 20.4013 20.4379C18.1799 22.6845 15.1622 23.9645 12.0031 24ZM11.9746 3.87597C10.8912 3.87836 9.85304 4.31093 9.0885 5.07857C8.32396 5.8462 7.89558 6.88606 7.89757 7.96947C7.89757 10.2315 9.72307 12.063 11.9746 12.063C14.2261 12.063 16.0531 10.2315 16.0531 7.96947C16.0547 6.88592 15.626 5.84607 14.8612 5.07848C14.0964 4.31088 13.0581 3.87836 11.9746 3.87597ZM15.4036 12.3795C14.4541 13.1325 13.2751 13.9245 12.0391 13.9245C10.7881 13.9245 9.59857 13.125 8.64307 12.354C6.12607 13.2825 5.00257 16.5225 5.00257 18.0015H19.0021C19.0021 16.5345 17.8711 13.3185 15.4036 12.3795Z" fill="#979595"/>
</g>
<defs>
<clipPath id="clip0_4021_314">
<rect width="24" height="24" fill="white"/>
</clipPath>
</defs>
</svg>
