<svg width="20" height="20" viewBox="0 0 20 20" fill="none" xmlns="http://www.w3.org/2000/svg">
<path d="M8.50001 1.91687e-08C10.096 -0.000107143 11.6597 0.449106 13.0123 1.29623C14.3649 2.14336 15.4517 3.35417 16.1482 4.79009C16.8448 6.22602 17.123 7.82905 16.9511 9.41573C16.7792 11.0024 16.164 12.5086 15.176 13.762L18.828 17.414C19.0102 17.6026 19.111 17.8552 19.1087 18.1174C19.1064 18.3796 19.0012 18.6304 18.8158 18.8158C18.6304 19.0012 18.3796 19.1064 18.1174 19.1087C17.8552 19.111 17.6026 19.0102 17.414 18.828L13.762 15.176C12.6975 16.015 11.4477 16.5872 10.117 16.8449C8.78635 17.1026 7.41333 17.0384 6.11252 16.6576C4.81171 16.2768 3.62084 15.5904 2.63925 14.6557C1.65766 13.7211 0.913817 12.5652 0.469788 11.2846C0.0257587 10.004 -0.105584 8.63574 0.0867177 7.29404C0.279019 5.95235 0.789389 4.67609 1.57525 3.57175C2.3611 2.46742 3.39966 1.56702 4.60427 0.945694C5.80887 0.324364 7.1446 0.000115492 8.50001 1.91687e-08ZM8.50001 2C6.7761 2 5.1228 2.68482 3.90382 3.90381C2.68483 5.12279 2.00001 6.77609 2.00001 8.5C2.00001 10.2239 2.68483 11.8772 3.90382 13.0962C5.1228 14.3152 6.7761 15 8.50001 15C10.2239 15 11.8772 14.3152 13.0962 13.0962C14.3152 11.8772 15 10.2239 15 8.5C15 6.77609 14.3152 5.12279 13.0962 3.90381C11.8772 2.68482 10.2239 2 8.50001 2ZM8.50001 3C9.9587 3 11.3576 3.57946 12.3891 4.61091C13.4205 5.64236 14 7.04131 14 8.5C14 9.95869 13.4205 11.3576 12.3891 12.3891C11.3576 13.4205 9.9587 14 8.50001 14C7.04132 14 5.64237 13.4205 4.61092 12.3891C3.57947 11.3576 3.00001 9.95869 3.00001 8.5C3.00001 7.04131 3.57947 5.64236 4.61092 4.61091C5.64237 3.57946 7.04132 3 8.50001 3Z" fill="#024DDF"/>
</svg>
