<svg width="24" height="24" viewBox="0 0 24 24" fill="none" xmlns="http://www.w3.org/2000/svg">
<g clip-path="url(#clip0_4021_292)">
<rect width="24" height="24" fill="white"/>
<path d="M5.87134 18.6446C5.18151 17.8475 4.47193 17.0867 3.83428 16.2699C3.19784 15.4545 2.61184 14.5972 2.04357 13.7321C1.4813 12.8761 1.05256 11.9482 0.697809 10.9848C0.42375 10.2406 0.216204 9.47618 0.156791 8.69261C0.0947405 7.87425 0.11429 7.04965 0.298509 6.23417C0.544891 5.14352 0.992466 4.14449 1.65975 3.26017C2.7218 1.85269 4.10836 0.901942 5.81564 0.408045C6.76717 0.132777 7.73229 0.094896 8.6999 0.152752C9.51944 0.201754 10.3119 0.431801 11.0626 0.776182C11.3566 0.91104 11.6376 1.0742 11.9303 1.21208C11.9942 1.24221 12.1017 1.25023 12.1578 1.21644C13.0377 0.686334 13.9884 0.328706 15.0011 0.208983C15.6899 0.127544 16.3975 0.153422 17.0931 0.19327C18.0807 0.249841 18.9992 0.580753 19.8638 1.05102C20.6864 1.49847 21.412 2.06508 22.0323 2.7782C22.7455 3.59823 23.2622 4.51845 23.6069 5.54237C23.9445 6.54489 24.0278 7.58316 23.9415 8.62394C23.8428 9.81368 23.4543 10.9317 22.9427 12.0088C22.4969 12.9475 21.9921 13.8516 21.3832 14.693C20.872 15.3994 20.3625 16.1109 19.7982 16.7741C19.0392 17.6662 18.2366 18.522 17.4363 19.378C16.9479 19.9005 16.4497 20.4175 15.9186 20.8955C15.0324 21.6929 14.1178 22.4587 13.2119 23.2341C12.9832 23.4299 12.7498 23.6219 12.5051 23.7969C12.1797 24.0298 11.9065 24.0355 11.5853 23.7928C11.0547 23.3919 10.5226 22.9899 10.0221 22.5528C9.16853 21.8072 8.32969 21.044 7.50252 20.2692C6.94677 19.7486 6.42184 19.1951 5.87134 18.6446ZM4.13078 14.4078C6.34502 17.4993 9.09098 20.0654 12.028 22.4401C12.0781 22.41 12.1072 22.3971 12.1307 22.3777C14.7281 20.2366 17.1676 17.9355 19.2639 15.2912C20.3118 13.9692 21.2449 12.5726 21.9141 11.0141C22.5971 9.42351 22.8651 7.79422 22.3566 6.09808C21.5296 3.33999 19.0118 1.43587 16.0667 1.46855C14.7676 1.48296 13.5754 1.8715 12.5017 2.61146C12.1775 2.83489 11.9214 2.83277 11.5967 2.61568C11.5449 2.58104 11.4942 2.54469 11.4418 2.51107C10.0303 1.60643 8.49006 1.28265 6.84302 1.56247C5.26475 1.83061 3.95778 2.60206 2.93583 3.83908C2.12177 4.82446 1.65153 5.96127 1.5042 7.22758C1.38642 8.23981 1.57688 9.21784 1.8935 10.1739C2.39847 11.6987 3.19415 13.0719 4.13078 14.4078Z" fill="#024DDF"/>
<path d="M4.12177 14.3936C3.19409 13.072 2.39841 11.6988 1.89344 10.174C1.57682 9.21791 1.38636 8.23988 1.50414 7.22765C1.65147 5.96134 2.12171 4.82453 2.93577 3.83915C3.95772 2.60213 5.26469 1.83068 6.84296 1.56254C8.49 1.28272 10.0302 1.6065 11.4417 2.51114C11.4942 2.54476 11.5449 2.58111 11.5967 2.61575C11.9214 2.83284 12.1774 2.83495 12.5016 2.61153C13.5753 1.87157 14.7675 1.48303 16.0667 1.46862C19.0118 1.43594 21.5295 3.34006 22.3565 6.09815C22.8651 7.79429 22.5971 9.42358 21.9141 11.0142C21.2449 12.5726 20.3118 13.9693 19.2638 15.2913C17.1676 17.9356 14.728 20.2367 12.1307 22.3778C12.1071 22.3972 12.0781 22.41 12.028 22.4401C9.09092 20.0655 6.34496 17.4994 4.12177 14.3936ZM12.9705 3.92647C12.9705 3.92647 12.9693 3.92584 12.9367 3.92714C12.687 4.10099 12.4333 4.26939 12.1895 4.45121C12.0834 4.5304 12.0094 4.52703 11.9029 4.44925C11.5311 4.17755 11.1563 3.90917 10.7731 3.65371C8.32688 2.02274 5.0082 2.77866 3.51015 5.3093C2.6285 6.79867 2.60898 8.3567 3.15331 9.95905C3.21055 10.1275 3.28949 10.1804 3.46834 10.1798C5.47554 10.1726 7.48278 10.1752 9.49001 10.1755C9.57585 10.1755 9.66276 10.1713 9.74734 10.1827C10.099 10.2299 10.3343 10.5123 10.322 10.8651C10.3101 11.2065 10.0626 11.4624 9.71416 11.4893C9.62091 11.4966 9.52687 11.4951 9.43319 11.4951C7.66808 11.4955 5.90297 11.4954 4.13786 11.4954C4.04912 11.4954 3.96038 11.4954 3.79144 11.4954C4.19731 12.138 4.56635 12.7146 4.926 13.2971C5.01441 13.4403 5.11902 13.4918 5.28723 13.4895C5.93533 13.4809 6.58367 13.4841 7.23187 13.4897C7.51845 13.4922 7.72255 13.6357 7.82834 13.9016C7.93035 14.1581 7.89696 14.418 7.68683 14.5876C7.54111 14.7052 7.33017 14.7791 7.14102 14.7976C6.80465 14.8306 6.46271 14.8069 6.06056 14.8069C7.87225 17.0251 9.87881 18.9528 12.0217 20.7353C12.0704 20.7044 12.0918 20.6943 12.1092 20.6794C14.4705 18.6582 16.6778 16.4869 18.5644 14.0075C19.4938 12.7863 20.3272 11.5048 20.8668 10.0558C21.0903 9.45552 21.2793 8.84433 21.2844 8.15613C21.3746 7.64461 21.2789 7.14651 21.1496 6.65778C20.451 4.01712 17.9617 2.40981 15.271 2.85998C14.4362 2.99965 13.6767 3.318 12.9992 3.88088C12.9901 3.89616 12.981 3.91144 12.9705 3.92647Z" fill="#FEFEFE"/>
<path d="M21.2771 8.19282C21.2793 8.84437 21.0904 9.45556 20.8668 10.0558C20.3272 11.5048 19.4938 12.7863 18.5645 14.0076C16.6778 16.4869 14.4705 18.6582 12.1092 20.6795C12.0919 20.6943 12.0704 20.7045 12.0217 20.7354C9.87882 18.9528 7.87226 17.0252 6.06057 14.8069C6.46272 14.8069 6.80466 14.8307 7.14103 14.7977C7.33018 14.7791 7.54112 14.7052 7.68684 14.5876C7.89697 14.418 7.93036 14.1581 7.82835 13.9017C7.72256 13.6357 7.51846 13.4922 7.23188 13.4897C6.58368 13.4842 5.93534 13.4809 5.28724 13.4896C5.11903 13.4918 5.01442 13.4403 4.926 13.2972C4.56636 12.7147 4.19732 12.138 3.79145 11.4954C3.96039 11.4954 4.04913 11.4954 4.13787 11.4954C5.90298 11.4954 7.66809 11.4955 9.4332 11.4952C9.52688 11.4952 9.62092 11.4966 9.71417 11.4894C10.0626 11.4624 10.3101 11.2066 10.322 10.8651C10.3343 10.5123 10.099 10.23 9.74735 10.1827C9.66277 10.1714 9.57586 10.1755 9.49002 10.1755C7.48279 10.1752 5.47555 10.1726 3.46835 10.1798C3.2895 10.1805 3.21056 10.1276 3.15332 9.9591C2.60899 8.35674 2.62851 6.79871 3.51016 5.30935C5.0082 2.7787 8.32689 2.02279 10.7731 3.65376C11.1563 3.90921 11.5311 4.17759 11.903 4.4493C12.0094 4.52707 12.0834 4.53044 12.1895 4.45126C12.4333 4.26944 12.687 4.10103 12.957 3.94466C12.7594 4.55685 13.205 5.00463 13.6763 4.91603C13.8307 4.88702 13.9794 4.79624 14.1161 4.7104C16.3604 3.30074 19.2917 4.5044 19.8843 7.08795C19.9465 7.35942 19.9526 7.64405 19.9809 7.92296C20.0347 8.45291 20.5126 8.75498 20.9481 8.51548C21.0777 8.4442 21.1685 8.30234 21.2771 8.19282Z" fill="#024DDF"/>
<path d="M21.2808 8.17441C21.1685 8.30226 21.0777 8.44411 20.9481 8.5154C20.5127 8.7549 20.0347 8.45282 19.9809 7.92287C19.9526 7.64396 19.9465 7.35933 19.8843 7.08787C19.2917 4.50431 16.3604 3.30065 14.1161 4.71031C13.9795 4.79616 13.8307 4.88693 13.6764 4.91594C13.2051 5.00454 12.7594 4.55677 12.9733 3.94392C12.9693 3.9258 12.9706 3.92643 12.9853 3.92378C13.0088 3.90489 13.0176 3.88865 13.0264 3.87242C13.6767 3.31795 14.4363 2.99961 15.2711 2.85994C17.9618 2.40976 20.451 4.01708 21.1496 6.65774C21.2789 7.14647 21.3746 7.64457 21.2808 8.17441Z" fill="#024DDF"/>
<path d="M13.0128 3.87671C13.0176 3.88873 13.0088 3.90497 12.9859 3.92398C12.981 3.91148 12.9901 3.8962 13.0128 3.87671Z" fill="#979595"/>
</g>
<defs>
<clipPath id="clip0_4021_292">
<rect width="24" height="24" fill="white"/>
</clipPath>
</defs>
</svg>
