<svg width="16" height="20" viewBox="0 0 16 20" fill="none" xmlns="http://www.w3.org/2000/svg">
<path d="M10 18C10 18.2626 9.94827 18.5227 9.84776 18.7654C9.74725 19.008 9.59993 19.2285 9.41421 19.4142C9.2285 19.5999 9.00802 19.7472 8.76537 19.8478C8.52271 19.9483 8.26264 20 8 20C7.73736 20 7.47728 19.9483 7.23463 19.8478C6.99198 19.7472 6.7715 19.5999 6.58579 19.4142C6.40007 19.2285 6.25275 19.008 6.15224 18.7654C6.05173 18.5227 6 18.2626 6 18H10ZM8 0C8.39782 0 8.77935 0.158035 9.06066 0.43934C9.34196 0.720644 9.5 1.10217 9.5 1.5V2.09C12.06 2.561 14 4.804 14 7.5V12.586C14.0001 12.8512 14.1055 13.1055 14.293 13.293L15.707 14.707C15.8945 14.8945 15.9999 15.1488 16 15.414V16C16 16.2652 15.8946 16.5196 15.7071 16.7071C15.5196 16.8946 15.2652 17 15 17H1C0.734783 17 0.480429 16.8946 0.292893 16.7071C0.105357 16.5196 0 16.2652 0 16V15.414C5.66383e-05 15.1488 0.10545 14.8945 0.293 14.707L1.707 13.293C1.89455 13.1055 1.99994 12.8512 2 12.586V7.5C2 4.804 3.94 2.56 6.5 2.09V1.5C6.5 1.10217 6.65804 0.720644 6.93934 0.43934C7.22064 0.158035 7.60217 0 8 0ZM8.5 4H7.5C6.60493 3.99993 5.74385 4.34278 5.09379 4.95806C4.44373 5.57333 4.0541 6.41428 4.005 7.308L4 7.5V12.586C3.99992 13.3129 3.73589 14.0151 3.257 14.562L3.121 14.707L2.828 15H13.171L12.879 14.707C12.3649 14.1928 12.055 13.5095 12.007 12.784L12 12.586V7.5C12.0001 6.60493 11.6572 5.74385 11.0419 5.09379C10.4267 4.44373 9.58572 4.0541 8.692 4.005L8.5 4Z" fill="#024DDF"/>
</svg>
