<svg width="24" height="24" viewBox="0 0 24 24" fill="none" xmlns="http://www.w3.org/2000/svg">
<path d="M14 20C14 20.2626 13.9483 20.5227 13.8478 20.7654C13.7472 21.008 13.5999 21.2285 13.4142 21.4142C13.2285 21.5999 13.008 21.7472 12.7654 21.8478C12.5227 21.9483 12.2626 22 12 22C11.7374 22 11.4773 21.9483 11.2346 21.8478C10.992 21.7472 10.7715 21.5999 10.5858 21.4142C10.4001 21.2285 10.2527 21.008 10.1522 20.7654C10.0517 20.5227 10 20.2626 10 20H14ZM12 2C12.3978 2 12.7794 2.15804 13.0607 2.43934C13.342 2.72064 13.5 3.10217 13.5 3.5V4.09C16.06 4.561 18 6.804 18 9.5V14.586C18.0001 14.8512 18.1055 15.1055 18.293 15.293L19.707 16.707C19.8945 16.8945 19.9999 17.1488 20 17.414V18C20 18.2652 19.8946 18.5196 19.7071 18.7071C19.5196 18.8946 19.2652 19 19 19H5C4.73478 19 4.48043 18.8946 4.29289 18.7071C4.10536 18.5196 4 18.2652 4 18V17.414C4.00006 17.1488 4.10545 16.8945 4.293 16.707L5.707 15.293C5.89455 15.1055 5.99994 14.8512 6 14.586V9.5C6 6.804 7.94 4.56 10.5 4.09V3.5C10.5 3.10217 10.658 2.72064 10.9393 2.43934C11.2206 2.15804 11.6022 2 12 2ZM12.5 6H11.5C10.6049 5.99993 9.74385 6.34278 9.09379 6.95806C8.44373 7.57333 8.0541 8.41428 8.005 9.308L8 9.5V14.586C7.99992 15.3129 7.73589 16.0151 7.257 16.562L7.121 16.707L6.828 17H17.171L16.879 16.707C16.3649 16.1928 16.055 15.5095 16.007 14.784L16 14.586V9.5C16.0001 8.60493 15.6572 7.74385 15.0419 7.09379C14.4267 6.44373 13.5857 6.0541 12.692 6.005L12.5 6Z" fill="#979595"/>
</svg>
