<svg width="24" height="24" viewBox="0 0 24 24" fill="none" xmlns="http://www.w3.org/2000/svg">
<path d="M23 3.5C23.55 3.5 24 3.95 24 4.5V19.5C24 20.05 23.55 20.5 23 20.5H1C0.45 20.5 0 20.05 0 19.5V4.5C0 3.95 0.45 3.5 1 3.5H23ZM22 8.35V5.5H19.15C19.5 6.9 20.6 8 22 8.35ZM22 13.6V10.4C19.5 10 17.5 8 17.1 5.5H6.9C6.5 8 4.5 10 2 10.4V13.6C4.5 14 6.5 16 6.9 18.5H17.1C17.5 16 19.5 14 22 13.6ZM22 18.5V15.65C20.6 16 19.5 17.1 19.15 18.5H22ZM2 18.5H4.85C4.5 17.1 3.4 16 2 15.65V18.5ZM2 5.5V8.35C3.4 8 4.5 6.9 4.85 5.5H2Z" fill="#024DDF"/>
<path d="M12 8C14.2 8 16 9.8 16 12C16 14.2 14.2 16 12 16C9.8 16 8 14.2 8 12C8 9.8 9.8 8 12 8ZM12 14C13.1 14 14 13.1 14 12C14 10.9 13.1 10 12 10C10.9 10 10 10.9 10 12C10 13.1 10.9 14 12 14Z" fill="#024DDF"/>
</svg>
